<?xml version="1.0" encoding="iso-8859-1"?>
<!-- Uploaded to: SVG Repo, www.svgrepo.com, Generator: SVG Repo Mixer Tools -->
<!DOCTYPE svg PUBLIC "-//W3C//DTD SVG 1.1//EN" "http://www.w3.org/Graphics/SVG/1.1/DTD/svg11.dtd">
<svg version="1.1" id="Capa_1" xmlns="http://www.w3.org/2000/svg" xmlns:xlink="http://www.w3.org/1999/xlink" 
	 viewBox="0 0 297.505 297.505" xml:space="preserve">
<g id="XMLID_48_">
	<g>
		
			<rect x="234.298" y="17.362" transform="matrix(0.7071 -0.7071 0.7071 0.7071 30.4098 186.8684)" style="fill:#CDD9DD;" width="12.954" height="78.729"/>
		<polygon style="fill:#CDD9DD;" points="238.31,91.611 194.27,135.651 161.85,103.241 205.89,59.191 		"/>
		<path style="fill:#D61616;" d="M147.76,117.331l32.41,32.42L59.32,270.601c-4.33,4.33-10.09,6.72-16.21,6.72
			s-11.88-2.39-16.21-6.72c-4.33-4.33-6.71-10.08-6.71-16.21c0-6.12,2.38-11.87,6.71-16.2L147.76,117.331z"/>
		<path d="M294.33,72.931c3.9,3.9,3.9,10.21,0,14.1l-23.25,23.25c-1.87,1.87-4.4,2.92-7.05,2.92c-2.64,0-5.18-1.05-7.05-2.92
			l-4.58-4.58l-178.99,179c-8.09,8.09-18.86,12.55-30.3,12.55c-11.45,0-22.21-4.46-30.31-12.55c-8.09-8.1-12.55-18.86-12.55-30.31
			c0-11.44,4.46-22.2,12.55-30.3l179-178.99l-4.58-4.58c-1.87-1.87-2.92-4.41-2.92-7.05c0-2.64,1.05-5.18,2.92-7.05l23.25-23.25
			c3.9-3.89,10.21-3.89,14.1,0L294.33,72.931z M264.03,89.141l9.16-9.16l-55.67-55.67l-9.16,9.16L264.03,89.141z M194.27,135.651
			l44.04-44.04l-32.42-32.42l-44.04,44.05L194.27,135.651z M180.17,149.751l-32.41-32.42L26.9,238.191
			c-4.33,4.33-6.71,10.08-6.71,16.2c0,6.13,2.38,11.88,6.71,16.21c4.33,4.33,10.09,6.72,16.21,6.72s11.88-2.39,16.21-6.72
			L180.17,149.751z"/>
	</g>
	<g>
	</g>
</g>
</svg>